<svg xmlns="http://www.w3.org/2000/svg" viewBox="0 0 63.51 55"><defs><style>.cls-1{fill:#77d8ce;}.cls-2{fill:none;stroke:#77d8ce;stroke-linecap:round;stroke-linejoin:round;stroke-width:1.5px;}</style></defs><title>icon</title><g id="Comms_Hex_copy" data-name="Comms Hex copy"><path class="cls-1" d="M46.48,6,61.2,31.5,46.48,57H17L2.31,31.5,17,6H46.48m1.15-2H15.88L0,31.5,15.88,59H47.63L63.51,31.5,47.63,4Z" transform="translate(0 -4)"/></g><g id="File"><circle class="cls-2" cx="39.9" cy="34.95" r="8.71"/><line class="cls-2" x1="39.9" y1="30.6" x2="39.9" y2="39.31"/><line class="cls-2" x1="35.54" y1="34.95" x2="44.25" y2="34.95"/><path class="cls-2" d="M26.83,43.31H18.12A2.18,2.18,0,0,1,16,41.13v-24A2.17,2.17,0,0,1,18.12,15H33.55a2.17,2.17,0,0,1,1.54.64l4.17,4.17a2.15,2.15,0,0,1,.64,1.54v4.54" transform="translate(0 -4)"/></g></svg>