<?xml version="1.0" encoding="utf-8"?>
<!-- Generator: Adobe Illustrator 23.0.6, SVG Export Plug-In . SVG Version: 6.00 Build 0)  -->
<svg version="1.1" id="Light" xmlns="http://www.w3.org/2000/svg" xmlns:xlink="http://www.w3.org/1999/xlink" x="0px" y="0px"
	 viewBox="0 0 24 24" style="enable-background:new 0 0 24 24;" xml:space="preserve">
<style type="text/css">
	.st0{fill:none;stroke:#EE7EA0;stroke-linecap:round;stroke-linejoin:round;}
	.st1{fill:none;stroke:#000000;stroke-linecap:round;stroke-linejoin:round;}
</style>
<title>like-1</title>
<path class="st0" d="M20,15.7L20,15.7c0.8,0,1.5,0.7,1.5,1.5s-0.7,1.5-1.5,1.5h-1c0.8,0,1.5,0.7,1.5,1.5c0,0.8-0.7,1-1.5,1h-6.5
	c-2.9,0-3.5-0.5-7-1v-8.5c2.4,0,6.5-4.5,6.5-8.5c0-1.6,2.2-2.2,3,0.7c0.5,1.8-1,5.3-1,5.3h8c0.8,0,1.5,0.7,1.5,1.5
	c0,0.8-0.7,2-1.5,2h-1c0.8,0,1.5,0.7,1.5,1.5s-0.7,1.5-1.5,1.5H20"/>
<rect x="0.5" y="10.2" class="st0" width="5" height="12"/>
<line class="st1" x1="3.2" y1="19.7" x2="3.2" y2="19.7"/>
<path class="st0" d="M3.2,19.7c-0.1,0-0.2,0.1-0.2,0.2s0.1,0.2,0.2,0.2s0.2-0.1,0.2-0.2S3.4,19.7,3.2,19.7"/>
</svg>
