<svg id="Light" xmlns="http://www.w3.org/2000/svg" viewBox="0 0 24 24"><defs><style>.cls-1,.cls-3{fill:#ee7ea0;}.cls-2{fill:none;stroke:#000;}.cls-2,.cls-3{stroke-linecap:round;stroke-linejoin:round;}.cls-3{stroke:#fff;}</style></defs><title>likedon</title><path class="cls-1" d="M20,15.7h0a1.5,1.5,0,0,1,0,3H19a1.54,1.54,0,0,1,1.5,1.5c0,.8-.7,1-1.5,1H12.5c-2.9,0-3.5-.5-7-1V11.7c2.4,0,6.5-4.5,6.5-8.5,0-1.6,2.2-2.2,3,.7.5,1.8-1,5.3-1,5.3h8a1.54,1.54,0,0,1,1.5,1.5c0,.8-.7,2-1.5,2H21a1.5,1.5,0,0,1,0,3H20"/><rect class="cls-1" x="0.5" y="10.2" width="5" height="12"/><line class="cls-2" x1="3.2" y1="19.7" x2="3.2" y2="19.7"/><path class="cls-3" d="M3.2,19.7a.2.2,0,1,0,.2.2c0-.1,0-.2-.2-.2"/></svg>