<svg id="Layer_1" data-name="Layer 1" xmlns="http://www.w3.org/2000/svg" viewBox="0 0 24 24"><defs><style>.cls-1,.cls-2{fill:none;stroke-linecap:round;stroke-linejoin:round;stroke-width:1.5px;}.cls-1{stroke:#ee7ea0;}.cls-2{stroke:#999;}</style></defs><title>course_dashboard</title><path class="cls-1" d="M9,15.29V15a3,3,0,1,1,6,0v.28" transform="translate(0 -0.01)"/><line class="cls-1" x1="14.25" y1="5.25" x2="12" y2="12"/><path class="cls-1" d="M6.38,7.51A.37.37,0,0,0,6,7.88a.38.38,0,1,0,.75,0h0a.37.37,0,0,0-.37-.37h0" transform="translate(0 -0.01)"/><path class="cls-1" d="M19.13,11.26a.37.37,0,0,0-.38.37.38.38,0,1,0,.75,0,.37.37,0,0,0-.37-.37h0" transform="translate(0 -0.01)"/><path class="cls-1" d="M17.63,7.51a.37.37,0,0,0-.38.37.38.38,0,1,0,.75,0h0a.37.37,0,0,0-.38-.37h0" transform="translate(0 -0.01)"/><path class="cls-1" d="M9.38,4.51A.37.37,0,0,0,9,4.88a.38.38,0,1,0,.75,0,.37.37,0,0,0-.37-.37h0" transform="translate(0 -0.01)"/><path class="cls-2" d="M21.43,18.14a15.75,15.75,0,0,0-18.86,0" transform="translate(0 -0.01)"/><circle class="cls-2" cx="12" cy="12" r="11.25"/><path class="cls-1" d="M4.88,11.26a.37.37,0,0,0-.38.37.38.38,0,1,0,.75,0,.37.37,0,0,0-.37-.37" transform="translate(0 -0.01)"/></svg>