<svg id="Layer_1" data-name="Layer 1" xmlns="http://www.w3.org/2000/svg" viewBox="0 0 23 23"><defs><style>.cls-1{fill:#999;}.cls-2{fill:#fff;stroke:#999;stroke-miterlimit:10;}</style></defs><title>gear</title><path class="cls-1" d="M19.92,7.21a1.87,1.87,0,0,0,.89,2.5l.18.07,1.26.45a1.88,1.88,0,0,1,0,3.54L21,14.22a1.86,1.86,0,0,0-1.14,2.39,1.34,1.34,0,0,0,.07.18L20.5,18a1.88,1.88,0,0,1-.88,2.5,1.91,1.91,0,0,1-1.62,0l-1.21-.58a1.88,1.88,0,0,0-2.5.89,1.34,1.34,0,0,0-.07.18l-.45,1.26a1.88,1.88,0,0,1-3.54,0L9.78,21a1.86,1.86,0,0,0-2.39-1.14l-.18.07L6,20.5a1.88,1.88,0,0,1-2.5-.88A1.84,1.84,0,0,1,3.5,18l.58-1.21a1.88,1.88,0,0,0-.89-2.5L3,14.22l-1.26-.45a1.88,1.88,0,0,1,0-3.54L3,9.78A1.86,1.86,0,0,0,4.15,7.39l-.07-.18L3.5,6a1.88,1.88,0,0,1,.88-2.5A1.84,1.84,0,0,1,6,3.5l1.21.58a1.88,1.88,0,0,0,2.5-.89A1.34,1.34,0,0,0,9.78,3l.45-1.26a1.88,1.88,0,0,1,3.54,0L14.22,3a1.86,1.86,0,0,0,2.39,1.14l.18-.07L18,3.5a1.88,1.88,0,0,1,2.5.88A1.91,1.91,0,0,1,20.5,6Z" transform="translate(-0.5 -0.5)"/><circle class="cls-2" cx="11.5" cy="11.5" r="4.5"/></svg>