<svg id="Layer_1" data-name="Layer 1" xmlns="http://www.w3.org/2000/svg" viewBox="0 0 23.97 24"><defs><style>.cls-1,.cls-2{fill:none;stroke-linecap:round;stroke-linejoin:round;stroke-width:1.5px;}.cls-1{stroke:#ee7ea0;}.cls-2{stroke:#999;}</style></defs><title>pencil</title><path class="cls-1" d="M22.63,14.87,15,22.5l-3.75.75L12,19.5l7.63-7.63a2.11,2.11,0,0,1,3,0h0A2.18,2.18,0,0,1,22.63,14.87Z"/><line class="cls-2" x1="3.75" y1="6.75" x2="14.25" y2="6.75"/><line class="cls-2" x1="3.75" y1="11.25" x2="14.25" y2="11.25"/><line class="cls-2" x1="3.75" y1="15.75" x2="9" y2="15.75"/><path class="cls-2" d="M7.5,20.25H2.25a1.5,1.5,0,0,1-1.5-1.5V2.25A1.5,1.5,0,0,1,2.25.75H12.88a1.5,1.5,0,0,1,1.06.44l2.87,2.87a1.5,1.5,0,0,1,.44,1.06V8.25"/></svg>